<svg xmlns="http://www.w3.org/2000/svg" viewBox="0 0 512 512">
  <defs>
    <filter id="shadow" x="-20%" y="-20%" width="140%" height="140%">
      <feDropShadow dx="0" dy="18" stdDeviation="18" flood-color="#000000" flood-opacity="0.18"/>
    </filter>
    <linearGradient id="tile" x1="0%" y1="0%" x2="100%" y2="100%">
      <stop offset="0%" stop-color="#fffdf8"/>
      <stop offset="100%" stop-color="#f1ece3"/>
    </linearGradient>
  </defs>

  <rect width="512" height="512" rx="120" fill="#ece7de"/>
  <rect x="52" y="52" width="408" height="408" rx="46" fill="url(#tile)" filter="url(#shadow)"/>

  <g fill="#171716">
    <path d="M289 135h17v181c0 28-6 48-18 61-12 12-30 19-53 19-23 0-40-6-52-18-12-12-18-28-18-49 0-8 1-14 2-20h33c-2 6-3 12-3 18 0 12 3 22 10 29 7 7 16 10 28 10 13 0 23-4 30-13 7-8 10-20 10-37V135h14z"/>
    <path d="M239 135h110v18H239z"/>
  </g>
</svg>
